CATALOG 0000000000000
FILE "Battlecorps (demo) (1994)(Core Design)(EU)(en)(Track 1 of 3).iso" BINARY
  TRACK 01 MODE1/2048
    INDEX 01 00:00:00
FILE "Battlecorps (demo) (1994)(Core Design)(EU)(en)(Track 2 of 3).wav" WAVE
  TRACK 02 AUDIO
    PREGAP 00:02:00
    INDEX 01 00:00:00
FILE "Battlecorps (demo) (1994)(Core Design)(EU)(en)(Track 3 of 3).wav" WAVE
  TRACK 03 AUDIO
    INDEX 01 00:00:00
